<svg xmlns="http://www.w3.org/2000/svg" preserveAspectRatio="xMidYMid meet" viewBox="0 0 17 17" width="100%" height="100%">
  <path d="M14.63 8.7c-.01 3.66-2.98 6.61-6.64 6.61s-6.61-2.97-6.6-6.63c.01-3.66 2.98-6.64 6.64-6.64s6.61 2.97 6.6 6.66z" fill="#F7931A"/>
  <path d="M6.16 10.29c-.01.1-.07.25-.28.25H5.34l-.15.89h.98c.18 0 .36.01.53.01v1.24h.75v-1.23c.2.01.4.02.6.02v1.23h.75v-1.24c1.26-.07 2.14-.39 2.25-1.57.09-.95-.35-1.38-1.06-1.56.43-.22.7-.61.64-1.26-.08-.89-.84-1.17-1.8-1.26v-1.23H8.05v1.2c-.2 0-.4.01-.6.01v-1.22H6.71v1.23c-.17.01-.33.01-.49.01H5.2v.8h.53c.3 0 .4.19.42.32v3.37zm3.4-.56c0 .93-1.59.83-2.1.83v-1.65c.51 0 2.1-.1 2.1.82zm-.34-2.33c0 .85-1.31.76-1.76.76V6.65c.45 0 1.77-.13 1.76.76z" fill="#fff"/>
</svg>
